<svg width="32" height="32" viewBox="0 0 32 32" fill="none" xmlns="http://www.w3.org/2000/svg">
<rect width="32" height="32" fill="#1E1E1E"/>
<rect width="32" height="32" fill="white"/>
<rect x="2.5" y="2.5" width="27" height="27" fill="white" stroke="black"/>
<path d="M17.107 24.253C16.4937 24.253 15.934 24.1533 15.428 23.954C14.9373 23.7547 14.4927 23.5553 14.094 23.356C13.7567 23.172 13.473 23.034 13.243 22.942C13.0283 22.85 12.8367 22.804 12.668 22.804C12.4533 22.804 12.3 22.896 12.208 23.08C12.1313 23.2487 12.07 23.4403 12.024 23.655L11.955 24H11.38L11.495 21.286L11.426 18.319H12.001L12.254 19.4C12.4227 20.0747 12.7217 20.734 13.151 21.378C13.5957 22.022 14.1477 22.551 14.807 22.965C15.4817 23.379 16.2483 23.586 17.107 23.586C17.5823 23.586 18.0347 23.4863 18.464 23.287C18.9087 23.0723 19.269 22.7503 19.545 22.321C19.8363 21.8917 19.982 21.332 19.982 20.642C19.982 19.6147 19.6447 18.7867 18.97 18.158C18.3107 17.5293 17.3907 16.9313 16.21 16.364L15.244 15.904C14.094 15.352 13.2353 14.7463 12.668 14.087C12.116 13.4123 11.84 12.5537 11.84 11.511C11.84 10.6983 12.0393 9.97767 12.438 9.349C12.8367 8.72033 13.381 8.22967 14.071 7.877C14.7763 7.52433 15.5813 7.348 16.486 7.348C17.1147 7.348 17.6437 7.43233 18.073 7.601C18.5023 7.76967 18.8397 7.91533 19.085 8.038C19.4837 8.23733 19.798 8.337 20.028 8.337C20.2733 8.337 20.419 8.09933 20.465 7.624H21.04L20.971 9.832L21.017 12.063H20.442C20.35 11.2043 20.1123 10.476 19.729 9.878C19.3457 9.26467 18.878 8.797 18.326 8.475C17.7893 8.153 17.2143 7.992 16.601 7.992C15.6963 7.992 14.9603 8.25267 14.393 8.774C13.841 9.29533 13.565 9.96233 13.565 10.775C13.565 11.649 13.8487 12.339 14.416 12.845C14.9833 13.3357 15.7193 13.8033 16.624 14.248L17.567 14.708C18.4103 15.122 19.131 15.5513 19.729 15.996C20.3423 16.4253 20.81 16.9313 21.132 17.514C21.4693 18.0967 21.638 18.825 21.638 19.699C21.638 20.6037 21.431 21.401 21.017 22.091C20.6183 22.781 20.074 23.3177 19.384 23.701C18.7093 24.069 17.9503 24.253 17.107 24.253Z" fill="black"/>
</svg>
