<svg width="236" height="40" viewBox="0 0 236 40" fill="none" xmlns="http://www.w3.org/2000/svg">
<rect x="2.5" y="2.5" width="231" height="35" stroke="black"/>
<path d="M11.15 27.075V26.45L11.7 26.4C12.3833 26.3333 12.9 26.25 13.25 26.15C13.6167 26.0333 13.8667 25.8 14 25.45C14.15 25.0833 14.225 24.4917 14.225 23.675V9.925H10.7C9.93333 9.925 9.325 10.075 8.875 10.375C8.44167 10.6583 8.05833 11.125 7.725 11.775C7.40833 12.425 7.03333 13.2917 6.6 14.375L6.075 14.25L6.7 11.175L6.975 9.175L14.1 9.25H16.475L23.625 9.175L23.9 11.175L24.525 14.25L23.975 14.4C23.5917 13.4333 23.2333 12.6167 22.9 11.95C22.5833 11.2833 22.2083 10.7833 21.775 10.45C21.3417 10.1 20.7667 9.925 20.05 9.925H16.35V23.675C16.35 24.4917 16.4167 25.0833 16.55 25.45C16.7 25.8 16.9583 26.0333 17.325 26.15C17.6917 26.25 18.2083 26.3333 18.875 26.4L19.425 26.45V27.075L15.35 27L11.15 27.075ZM24.9785 27.075V26.5L25.3785 26.45C25.8618 26.3833 26.2285 26.3083 26.4785 26.225C26.7452 26.125 26.9285 25.9167 27.0285 25.6C27.1285 25.2667 27.1785 24.725 27.1785 23.975V11.775C27.1785 10.9083 26.9952 10.3583 26.6285 10.125C26.2785 9.875 25.7868 9.75 25.1535 9.75H24.9785V9.175C25.6618 9.175 26.3202 9.15833 26.9535 9.125C27.5868 9.075 28.2452 8.99167 28.9285 8.875V17.825C29.3118 17.2583 29.8535 16.7583 30.5535 16.325C31.2535 15.875 32.0702 15.65 33.0035 15.65C34.1368 15.65 35.0285 15.9417 35.6785 16.525C36.3452 17.0917 36.6785 17.9083 36.6785 18.975V23.975C36.6785 24.725 36.7285 25.2667 36.8285 25.6C36.9285 25.9167 37.1035 26.125 37.3535 26.225C37.6202 26.3083 37.9952 26.3833 38.4785 26.45L38.8785 26.5V27.075L35.8035 27L32.7285 27.075V26.5L33.1285 26.45C33.6118 26.3833 33.9785 26.3083 34.2285 26.225C34.4952 26.125 34.6785 25.9167 34.7785 25.6C34.8785 25.2667 34.9285 24.725 34.9285 23.975V18.975C34.9285 18.1417 34.7118 17.5083 34.2785 17.075C33.8452 16.625 33.2368 16.4 32.4535 16.4C31.8535 16.4 31.3118 16.5417 30.8285 16.825C30.3452 17.0917 29.9452 17.425 29.6285 17.825C29.3118 18.225 29.0785 18.6083 28.9285 18.975V23.975C28.9285 24.725 28.9785 25.2667 29.0785 25.6C29.1785 25.9167 29.3535 26.125 29.6035 26.225C29.8702 26.3083 30.2452 26.3833 30.7285 26.45L31.1285 26.5V27.075L28.0535 27L24.9785 27.075ZM45.7543 27.275C44.6543 27.275 43.696 27.0417 42.8793 26.575C42.0626 26.0917 41.421 25.4333 40.9543 24.6C40.5043 23.75 40.2793 22.7833 40.2793 21.7C40.2793 20.5333 40.5293 19.5 41.0293 18.6C41.5293 17.6833 42.196 16.9667 43.0293 16.45C43.8793 15.9167 44.8126 15.65 45.8293 15.65C47.1126 15.65 48.1126 16.0583 48.8293 16.875C49.5626 17.6917 49.9293 18.7667 49.9293 20.1C49.9293 20.3 49.921 20.4667 49.9043 20.6C49.8876 20.7333 49.871 20.825 49.8543 20.875H42.3043C42.2876 21.1083 42.2793 21.3417 42.2793 21.575C42.2793 22.4583 42.421 23.2833 42.7043 24.05C42.9876 24.8 43.4126 25.4 43.9793 25.85C44.5626 26.3 45.271 26.525 46.1043 26.525C46.8876 26.525 47.5793 26.3083 48.1793 25.875C48.796 25.425 49.271 24.7667 49.6043 23.9L50.2043 24.125C49.5043 26.225 48.021 27.275 45.7543 27.275ZM45.8293 16.275C44.796 16.275 43.9876 16.6417 43.4043 17.375C42.8376 18.1083 42.4876 19.0833 42.3543 20.3H45.5293C46.2793 20.3 46.846 20.2167 47.2293 20.05C47.6293 19.8667 47.896 19.65 48.0293 19.4C48.1793 19.1333 48.2543 18.875 48.2543 18.625C48.2543 17.8917 48.0043 17.3167 47.5043 16.9C47.0043 16.4833 46.446 16.275 45.8293 16.275ZM65.3852 27.275C64.7185 27.275 64.1102 27.1667 63.5602 26.95C63.0268 26.7333 62.5435 26.5167 62.1102 26.3C61.7435 26.1 61.4352 25.95 61.1852 25.85C60.9518 25.75 60.7435 25.7 60.5602 25.7C60.3268 25.7 60.1602 25.8 60.0602 26C59.9768 26.1833 59.9102 26.3917 59.8602 26.625L59.7852 27H59.1602L59.2852 24.05L59.2102 20.825H59.8352L60.1102 22C60.2935 22.7333 60.6185 23.45 61.0852 24.15C61.5685 24.85 62.1685 25.425 62.8852 25.875C63.6185 26.325 64.4518 26.55 65.3852 26.55C65.9018 26.55 66.3935 26.4417 66.8602 26.225C67.3435 25.9917 67.7352 25.6417 68.0352 25.175C68.3518 24.7083 68.5102 24.1 68.5102 23.35C68.5102 22.2333 68.1435 21.3333 67.4102 20.65C66.6935 19.9667 65.6935 19.3167 64.4102 18.7L63.3602 18.2C62.1102 17.6 61.1768 16.9417 60.5602 16.225C59.9602 15.4917 59.6602 14.5583 59.6602 13.425C59.6602 12.5417 59.8768 11.7583 60.3102 11.075C60.7435 10.3917 61.3352 9.85833 62.0852 9.475C62.8518 9.09167 63.7268 8.9 64.7102 8.9C65.3935 8.9 65.9685 8.99167 66.4352 9.175C66.9018 9.35833 67.2685 9.51667 67.5352 9.65C67.9685 9.86667 68.3102 9.975 68.5602 9.975C68.8268 9.975 68.9852 9.71667 69.0352 9.2H69.6602L69.5852 11.6L69.6352 14.025H69.0102C68.9102 13.0917 68.6518 12.3 68.2352 11.65C67.8185 10.9833 67.3102 10.475 66.7102 10.125C66.1268 9.775 65.5018 9.6 64.8352 9.6C63.8518 9.6 63.0518 9.88333 62.4352 10.45C61.8352 11.0167 61.5352 11.7417 61.5352 12.625C61.5352 13.575 61.8435 14.325 62.4602 14.875C63.0768 15.4083 63.8768 15.9167 64.8602 16.4L65.8852 16.9C66.8018 17.35 67.5852 17.8167 68.2352 18.3C68.9018 18.7667 69.4102 19.3167 69.7602 19.95C70.1268 20.5833 70.3102 21.375 70.3102 22.325C70.3102 23.3083 70.0852 24.175 69.6352 24.925C69.2018 25.675 68.6102 26.2583 67.8602 26.675C67.1268 27.075 66.3018 27.275 65.3852 27.275ZM77.0238 27.275C76.2072 27.275 75.5405 27.0333 75.0238 26.55C74.5238 26.05 74.2738 25.2417 74.2738 24.125V16.725H72.4238V16.1L73.0988 16.05C73.7822 16 74.2988 15.725 74.6488 15.225C75.0155 14.7083 75.2572 13.9917 75.3738 13.075H76.0238V16.1H79.2238V16.725H76.0238V24.225C76.0238 25.6917 76.5405 26.425 77.5738 26.425C78.0072 26.425 78.3572 26.2833 78.6238 26C78.8905 25.7 79.1322 25.3333 79.3488 24.9L79.8988 25.175C79.7988 25.425 79.6738 25.6583 79.5238 25.875C79.3905 26.075 79.2572 26.25 79.1238 26.4C78.8405 26.7167 78.5155 26.9417 78.1488 27.075C77.7988 27.2083 77.4238 27.275 77.0238 27.275ZM83.9264 27.275C83.1264 27.275 82.4597 27.075 81.9264 26.675C81.4097 26.2583 81.1514 25.6833 81.1514 24.95C81.1514 24.2167 81.4764 23.5667 82.1264 23C82.7764 22.4167 83.5347 21.8917 84.4014 21.425C85.0514 21.0583 85.7014 20.7417 86.3514 20.475C87.0014 20.2083 87.5597 19.9833 88.0264 19.8V19C88.0264 18.0833 87.8514 17.4 87.5014 16.95C87.168 16.5 86.5264 16.275 85.5764 16.275C85.1264 16.275 84.6847 16.3333 84.2514 16.45C83.818 16.5667 83.6014 16.7833 83.6014 17.1C83.6014 17.1667 83.6097 17.2417 83.6264 17.325C83.6597 17.4083 83.6847 17.4917 83.7014 17.575C83.7847 17.7917 83.8264 18.0167 83.8264 18.25C83.8264 18.5667 83.7097 18.8167 83.4764 19C83.2597 19.1667 82.993 19.25 82.6764 19.25C82.3764 19.25 82.1264 19.1417 81.9264 18.925C81.7264 18.6917 81.6264 18.4167 81.6264 18.1C81.6264 17.5 81.8514 17.025 82.3014 16.675C82.768 16.3083 83.3347 16.05 84.0014 15.9C84.668 15.7333 85.3097 15.65 85.9264 15.65C87.2597 15.65 88.2347 15.9583 88.8514 16.575C89.468 17.1917 89.7764 18.2 89.7764 19.6V24.1C89.7764 24.8333 89.8264 25.4 89.9264 25.8C90.043 26.2 90.293 26.4 90.6764 26.4C90.9264 26.4 91.143 26.3083 91.3264 26.125C91.5097 25.9417 91.6347 25.7417 91.7014 25.525L92.1514 25.7C92.018 26.1833 91.7764 26.5667 91.4264 26.85C91.093 27.1333 90.6264 27.275 90.0264 27.275C89.293 27.275 88.7847 27.0667 88.5014 26.65C88.2347 26.2167 88.0847 25.65 88.0514 24.95C87.5847 25.7 86.993 26.275 86.2764 26.675C85.5597 27.075 84.7764 27.275 83.9264 27.275ZM83.1014 24.825C83.1014 25.2917 83.2347 25.6667 83.5014 25.95C83.7847 26.2167 84.193 26.35 84.7264 26.35C85.2097 26.35 85.668 26.2333 86.1014 26C86.5514 25.7667 86.943 25.475 87.2764 25.125C87.6097 24.7583 87.8597 24.3667 88.0264 23.95V20.3C87.4764 20.5333 86.9097 20.8083 86.3264 21.125C85.7597 21.425 85.2264 21.7667 84.7264 22.15C84.243 22.5333 83.8514 22.95 83.5514 23.4C83.2514 23.8333 83.1014 24.3083 83.1014 24.825ZM97.4572 27.275C96.8239 27.275 96.2822 27.2 95.8322 27.05C95.3989 26.9167 95.0572 26.7917 94.8072 26.675C94.5406 26.5417 94.3739 26.475 94.3072 26.475C94.2406 26.475 94.1822 26.5083 94.1322 26.575C94.0989 26.625 94.0572 26.7667 94.0072 27H93.4322L93.5322 25.35L93.6072 23.225H94.1572L94.1822 23.65C94.2156 24.1167 94.3656 24.5833 94.6322 25.05C94.9156 25.5167 95.2989 25.9083 95.7822 26.225C96.2656 26.5417 96.8239 26.7 97.4572 26.7C98.1406 26.7 98.6906 26.525 99.1072 26.175C99.5239 25.825 99.7322 25.3417 99.7322 24.725C99.7322 24.1917 99.5156 23.7417 99.0822 23.375C98.6656 23.0083 98.0822 22.6833 97.3322 22.4L96.4322 22.05C95.5656 21.7167 94.9072 21.3 94.4572 20.8C94.0239 20.3 93.8072 19.6583 93.8072 18.875C93.8072 18.2083 93.9572 17.6417 94.2572 17.175C94.5739 16.6917 94.9822 16.3167 95.4822 16.05C95.9989 15.7833 96.5489 15.65 97.1322 15.65C97.5489 15.65 97.8989 15.7 98.1822 15.8C98.4822 15.9 98.7322 16 98.9322 16.1C99.0989 16.1833 99.2406 16.225 99.3572 16.225C99.5239 16.225 99.6572 16.05 99.7572 15.7L100.307 15.725L100.207 17.35V19.1H99.6322C99.5156 18.3167 99.2489 17.6417 98.8322 17.075C98.4156 16.4917 97.8156 16.2 97.0322 16.2C96.4822 16.2 96.0156 16.375 95.6322 16.725C95.2656 17.075 95.0822 17.5167 95.0822 18.05C95.0822 18.5667 95.2739 19 95.6572 19.35C96.0572 19.6833 96.5989 19.9833 97.2822 20.25L98.2572 20.625C99.2739 21.0083 99.9739 21.475 100.357 22.025C100.757 22.5583 100.957 23.2 100.957 23.95C100.957 24.8333 100.657 25.6083 100.057 26.275C99.4572 26.9417 98.5906 27.275 97.4572 27.275ZM102.176 27.075V26.5L102.576 26.45C103.059 26.3833 103.426 26.3083 103.676 26.225C103.942 26.125 104.126 25.9167 104.226 25.6C104.326 25.2667 104.376 24.725 104.376 23.975V11.775C104.376 10.9083 104.192 10.3583 103.826 10.125C103.476 9.875 102.984 9.75 102.351 9.75H102.176V9.175C102.859 9.175 103.517 9.15833 104.151 9.125C104.784 9.075 105.442 8.99167 106.126 8.875V17.825C106.509 17.2583 107.051 16.7583 107.751 16.325C108.451 15.875 109.267 15.65 110.201 15.65C111.334 15.65 112.226 15.9417 112.876 16.525C113.542 17.0917 113.876 17.9083 113.876 18.975V23.975C113.876 24.725 113.926 25.2667 114.026 25.6C114.126 25.9167 114.301 26.125 114.551 26.225C114.817 26.3083 115.192 26.3833 115.676 26.45L116.076 26.5V27.075L113.001 27L109.926 27.075V26.5L110.326 26.45C110.809 26.3833 111.176 26.3083 111.426 26.225C111.692 26.125 111.876 25.9167 111.976 25.6C112.076 25.2667 112.126 24.725 112.126 23.975V18.975C112.126 18.1417 111.909 17.5083 111.476 17.075C111.042 16.625 110.434 16.4 109.651 16.4C109.051 16.4 108.509 16.5417 108.026 16.825C107.542 17.0917 107.142 17.425 106.826 17.825C106.509 18.225 106.276 18.6083 106.126 18.975V23.975C106.126 24.725 106.176 25.2667 106.276 25.6C106.376 25.9167 106.551 26.125 106.801 26.225C107.067 26.3083 107.442 26.3833 107.926 26.45L108.326 26.5V27.075L105.251 27L102.176 27.075ZM132.693 27.275C130.993 27.275 129.527 26.8833 128.293 26.1C127.077 25.3167 126.135 24.2417 125.468 22.875C124.818 21.4917 124.493 19.9083 124.493 18.125C124.493 16.7917 124.71 15.5667 125.143 14.45C125.577 13.3333 126.177 12.3583 126.943 11.525C127.71 10.6917 128.593 10.05 129.593 9.6C130.61 9.13333 131.693 8.9 132.843 8.9C133.86 8.9 134.693 9.01667 135.343 9.25C136.01 9.46667 136.51 9.65833 136.843 9.825C137.06 9.925 137.26 10.0167 137.443 10.1C137.627 10.1667 137.752 10.2 137.818 10.2C138.002 10.2 138.152 10.1333 138.268 10C138.385 9.85 138.46 9.6 138.493 9.25H139.118L139.068 12.175L139.118 15.1H138.493C138.243 13.3667 137.643 12.025 136.693 11.075C135.743 10.125 134.485 9.65 132.918 9.65C131.818 9.65 130.893 9.875 130.143 10.325C129.393 10.7583 128.793 11.3667 128.343 12.15C127.893 12.9167 127.56 13.8167 127.343 14.85C127.143 15.8667 127.043 16.9583 127.043 18.125C127.043 19.875 127.227 21.375 127.593 22.625C127.977 23.875 128.593 24.8417 129.443 25.525C130.31 26.1917 131.468 26.525 132.918 26.525C134.002 26.525 134.943 26.275 135.743 25.775C136.543 25.275 137.185 24.6083 137.668 23.775C138.168 22.9417 138.468 22.025 138.568 21.025H139.168L139.118 24.075L139.193 27H138.593L138.518 26.725C138.452 26.5083 138.368 26.3083 138.268 26.125C138.185 25.925 138.035 25.825 137.818 25.825C137.702 25.825 137.56 25.8583 137.393 25.925C137.243 25.9917 137.068 26.075 136.868 26.175C136.435 26.3917 135.868 26.6333 135.168 26.9C134.468 27.15 133.643 27.275 132.693 27.275ZM147.812 27.275C146.745 27.275 145.77 27.0167 144.887 26.5C144.02 25.9833 143.328 25.2917 142.812 24.425C142.312 23.5417 142.062 22.5667 142.062 21.5C142.062 20.4 142.312 19.4083 142.812 18.525C143.328 17.6417 144.02 16.9417 144.887 16.425C145.77 15.9083 146.745 15.65 147.812 15.65C148.895 15.65 149.87 15.9083 150.737 16.425C151.603 16.9417 152.287 17.6417 152.787 18.525C153.303 19.4083 153.562 20.4 153.562 21.5C153.562 22.5667 153.303 23.5417 152.787 24.425C152.287 25.2917 151.603 25.9833 150.737 26.5C149.87 27.0167 148.895 27.275 147.812 27.275ZM147.812 26.65C148.712 26.65 149.437 26.425 149.987 25.975C150.537 25.5083 150.937 24.8917 151.187 24.125C151.437 23.3417 151.562 22.4667 151.562 21.5C151.562 20.5 151.437 19.6083 151.187 18.825C150.937 18.0417 150.537 17.425 149.987 16.975C149.437 16.5083 148.712 16.275 147.812 16.275C146.912 16.275 146.187 16.5083 145.637 16.975C145.087 17.425 144.687 18.0417 144.437 18.825C144.187 19.6083 144.062 20.5 144.062 21.5C144.062 22.4667 144.187 23.3417 144.437 24.125C144.687 24.8917 145.087 25.5083 145.637 25.975C146.187 26.425 146.912 26.65 147.812 26.65ZM155.382 27.075V26.5L155.782 26.45C156.265 26.3833 156.632 26.3083 156.882 26.225C157.148 26.125 157.332 25.9167 157.432 25.6C157.532 25.2667 157.582 24.725 157.582 23.975V18.7C157.582 18.1 157.49 17.6583 157.307 17.375C157.14 17.075 156.89 16.8833 156.557 16.8C156.223 16.7167 155.832 16.675 155.382 16.675V16.1C156.065 16.1 156.723 16.0833 157.357 16.05C157.99 16 158.648 15.9167 159.332 15.8V17.75C159.698 17.1833 160.207 16.6917 160.857 16.275C161.523 15.8583 162.29 15.65 163.157 15.65C164.04 15.65 164.773 15.8417 165.357 16.225C165.957 16.5917 166.357 17.175 166.557 17.975C166.907 17.375 167.423 16.8417 168.107 16.375C168.79 15.8917 169.598 15.65 170.532 15.65C171.615 15.65 172.473 15.9333 173.107 16.5C173.757 17.0667 174.082 17.9667 174.082 19.2V23.975C174.082 24.7083 174.123 25.2417 174.207 25.575C174.307 25.8917 174.482 26.1 174.732 26.2C174.998 26.3 175.373 26.3833 175.857 26.45L176.257 26.5V27.075L173.207 27L170.382 27.075V26.5L170.782 26.45C171.198 26.4 171.515 26.325 171.732 26.225C171.965 26.125 172.123 25.9167 172.207 25.6C172.29 25.2667 172.332 24.725 172.332 23.975V18.775C172.332 18.0417 172.132 17.4667 171.732 17.05C171.332 16.6167 170.765 16.4 170.032 16.4C169.432 16.4 168.907 16.5333 168.457 16.8C168.007 17.0667 167.632 17.4 167.332 17.8C167.048 18.2 166.84 18.5917 166.707 18.975C166.707 19.0417 166.707 19.1167 166.707 19.2V23.975C166.707 24.725 166.748 25.2667 166.832 25.6C166.915 25.9167 167.065 26.125 167.282 26.225C167.515 26.3083 167.84 26.3833 168.257 26.45L168.657 26.5V27.075L165.832 27L163.007 27.075V26.5L163.407 26.45C163.823 26.3833 164.14 26.3083 164.357 26.225C164.59 26.125 164.748 25.9167 164.832 25.6C164.915 25.2667 164.957 24.725 164.957 23.975V18.775C164.957 18.0417 164.757 17.4667 164.357 17.05C163.957 16.6167 163.39 16.4 162.657 16.4C162.073 16.4 161.557 16.5333 161.107 16.8C160.657 17.0667 160.282 17.4 159.982 17.8C159.682 18.2 159.465 18.5917 159.332 18.975V23.975C159.332 24.725 159.373 25.2667 159.457 25.6C159.54 25.9167 159.69 26.125 159.907 26.225C160.14 26.3083 160.465 26.3833 160.882 26.45L161.282 26.5V27.075L158.457 27L155.382 27.075ZM176.982 34.075V33.5L177.382 33.45C177.866 33.3833 178.232 33.3 178.482 33.2C178.749 33.1167 178.932 32.9083 179.032 32.575C179.132 32.2583 179.182 31.725 179.182 30.975V18.625C179.182 18.025 179.091 17.5917 178.907 17.325C178.741 17.0417 178.491 16.8667 178.157 16.8C177.824 16.7167 177.432 16.675 176.982 16.675V16.1C177.666 16.1 178.324 16.0667 178.957 16C179.591 15.9333 180.249 15.8417 180.932 15.725L180.757 17.425C181.224 16.8917 181.757 16.4667 182.357 16.15C182.974 15.8167 183.657 15.65 184.407 15.65C185.374 15.65 186.232 15.9083 186.982 16.425C187.749 16.9417 188.357 17.6417 188.807 18.525C189.257 19.4083 189.482 20.4 189.482 21.5C189.482 22.5667 189.257 23.5417 188.807 24.425C188.357 25.2917 187.741 25.9833 186.957 26.5C186.191 27.0167 185.307 27.275 184.307 27.275C183.607 27.275 182.966 27.1333 182.382 26.85C181.799 26.55 181.316 26.2167 180.932 25.85V30.975C180.932 31.725 180.982 32.2583 181.082 32.575C181.182 32.9083 181.357 33.1167 181.607 33.2C181.874 33.3 182.249 33.3833 182.732 33.45L183.132 33.5V34.075L180.057 34L176.982 34.075ZM184.107 16.4C183.424 16.4 182.816 16.5667 182.282 16.9C181.766 17.2167 181.316 17.6083 180.932 18.075V24.825C181.216 25.2583 181.641 25.65 182.207 26C182.774 26.35 183.399 26.525 184.082 26.525C184.849 26.525 185.482 26.3083 185.982 25.875C186.482 25.425 186.857 24.825 187.107 24.075C187.357 23.3083 187.482 22.45 187.482 21.5C187.482 20.5333 187.357 19.6667 187.107 18.9C186.857 18.1333 186.482 17.525 185.982 17.075C185.499 16.625 184.874 16.4 184.107 16.4ZM194.644 27.275C193.844 27.275 193.177 27.075 192.644 26.675C192.127 26.2583 191.869 25.6833 191.869 24.95C191.869 24.2167 192.194 23.5667 192.844 23C193.494 22.4167 194.252 21.8917 195.119 21.425C195.769 21.0583 196.419 20.7417 197.069 20.475C197.719 20.2083 198.277 19.9833 198.744 19.8V19C198.744 18.0833 198.569 17.4 198.219 16.95C197.886 16.5 197.244 16.275 196.294 16.275C195.844 16.275 195.402 16.3333 194.969 16.45C194.536 16.5667 194.319 16.7833 194.319 17.1C194.319 17.1667 194.327 17.2417 194.344 17.325C194.377 17.4083 194.402 17.4917 194.419 17.575C194.502 17.7917 194.544 18.0167 194.544 18.25C194.544 18.5667 194.427 18.8167 194.194 19C193.977 19.1667 193.711 19.25 193.394 19.25C193.094 19.25 192.844 19.1417 192.644 18.925C192.444 18.6917 192.344 18.4167 192.344 18.1C192.344 17.5 192.569 17.025 193.019 16.675C193.486 16.3083 194.052 16.05 194.719 15.9C195.386 15.7333 196.027 15.65 196.644 15.65C197.977 15.65 198.952 15.9583 199.569 16.575C200.186 17.1917 200.494 18.2 200.494 19.6V24.1C200.494 24.8333 200.544 25.4 200.644 25.8C200.761 26.2 201.011 26.4 201.394 26.4C201.644 26.4 201.861 26.3083 202.044 26.125C202.227 25.9417 202.352 25.7417 202.419 25.525L202.869 25.7C202.736 26.1833 202.494 26.5667 202.144 26.85C201.811 27.1333 201.344 27.275 200.744 27.275C200.011 27.275 199.502 27.0667 199.219 26.65C198.952 26.2167 198.802 25.65 198.769 24.95C198.302 25.7 197.711 26.275 196.994 26.675C196.277 27.075 195.494 27.275 194.644 27.275ZM193.819 24.825C193.819 25.2917 193.952 25.6667 194.219 25.95C194.502 26.2167 194.911 26.35 195.444 26.35C195.927 26.35 196.386 26.2333 196.819 26C197.269 25.7667 197.661 25.475 197.994 25.125C198.327 24.7583 198.577 24.3667 198.744 23.95V20.3C198.194 20.5333 197.627 20.8083 197.044 21.125C196.477 21.425 195.944 21.7667 195.444 22.15C194.961 22.5333 194.569 22.95 194.269 23.4C193.969 23.8333 193.819 24.3083 193.819 24.825ZM203.575 27.075V26.5L203.975 26.45C204.458 26.3833 204.825 26.3083 205.075 26.225C205.342 26.125 205.525 25.9167 205.625 25.6C205.725 25.2667 205.775 24.725 205.775 23.975V18.7C205.775 17.8333 205.592 17.2833 205.225 17.05C204.875 16.8 204.383 16.675 203.75 16.675H203.575V16.1C204.258 16.1 204.917 16.0833 205.55 16.05C206.183 16 206.842 15.9167 207.525 15.8V17.825C207.908 17.2583 208.45 16.7583 209.15 16.325C209.85 15.875 210.667 15.65 211.6 15.65C212.733 15.65 213.625 15.9417 214.275 16.525C214.942 17.0917 215.275 17.9083 215.275 18.975V23.975C215.275 24.725 215.325 25.2667 215.425 25.6C215.525 25.9167 215.7 26.125 215.95 26.225C216.217 26.3083 216.592 26.3833 217.075 26.45L217.475 26.5V27.075L214.4 27L211.325 27.075V26.5L211.725 26.45C212.208 26.3833 212.575 26.3083 212.825 26.225C213.092 26.125 213.275 25.9167 213.375 25.6C213.475 25.2667 213.525 24.725 213.525 23.975V18.975C213.525 18.1417 213.308 17.5083 212.875 17.075C212.442 16.625 211.833 16.4 211.05 16.4C210.45 16.4 209.908 16.5417 209.425 16.825C208.942 17.0917 208.542 17.425 208.225 17.825C207.908 18.225 207.675 18.6083 207.525 18.975V23.975C207.525 24.725 207.575 25.2667 207.675 25.6C207.775 25.9167 207.95 26.125 208.2 26.225C208.467 26.3083 208.842 26.3833 209.325 26.45L209.725 26.5V27.075L206.65 27L203.575 27.075ZM218.205 34.35C217.638 34.35 217.213 34.2083 216.93 33.925C216.647 33.6583 216.505 33.3583 216.505 33.025C216.505 32.6917 216.63 32.4083 216.88 32.175C217.113 31.9583 217.413 31.85 217.78 31.85C218.013 31.85 218.197 31.8833 218.33 31.95C218.463 32.0333 218.588 32.1167 218.705 32.2C218.822 32.2833 218.955 32.3667 219.105 32.45C219.255 32.55 219.43 32.6 219.63 32.6C219.93 32.6 220.238 32.4833 220.555 32.25C220.888 32.0167 221.23 31.5333 221.58 30.8L223.23 27.25L219.08 18.15C218.913 17.7667 218.73 17.45 218.53 17.2C218.33 16.95 218.022 16.8 217.605 16.75L217.03 16.675V16.1L219.63 16.175L222.155 16.1V16.675L221.805 16.725C221.105 16.825 220.755 17.0833 220.755 17.5C220.755 17.7 220.847 18 221.03 18.4L224.155 25.25L227.28 18.525C227.463 18.1083 227.555 17.7833 227.555 17.55C227.555 17.1 227.147 16.825 226.33 16.725L225.93 16.675V16.1L228.33 16.175L230.33 16.1V16.675L229.955 16.725C229.338 16.8083 228.888 17.0333 228.605 17.4C228.338 17.7667 228.088 18.2167 227.855 18.75L222.205 31.075C221.938 31.6417 221.622 32.175 221.255 32.675C220.905 33.175 220.48 33.575 219.98 33.875C219.497 34.1917 218.905 34.35 218.205 34.35Z" fill="black"/>
</svg>
